HIERARCHY
ROOT Hips
{
  OFFSET 0.000000 0.000000 0.000000
  CHANNELS 6 Xposition Yposition Zposition Zrotation Yrotation Xrotation
  JOINT Spine1
  {
    OFFSET -0.013727 5.003763 -0.053727
    CHANNELS 3 Zrotation Yrotation Xrotation
    JOINT Spine2
    {
      OFFSET -0.000000 7.125301 -0.029825
      CHANNELS 3 Zrotation Yrotation Xrotation
      JOINT Chest
      {
        OFFSET -0.000001 7.550063 -0.815971
        CHANNELS 3 Zrotation Yrotation Xrotation
        JOINT Neck1
        {
          OFFSET -0.181677 26.311295 -0.553348
          CHANNELS 3 Zrotation Yrotation Xrotation
          JOINT Neck2
          {
            OFFSET -0.000003 7.709397 2.302585
            CHANNELS 3 Zrotation Yrotation Xrotation
            JOINT Head
            {
              OFFSET -0.000005 6.128916 1.953709
              CHANNELS 3 Zrotation Yrotation Xrotation
              JOINT HeadEnd
              {
                OFFSET 0.003598 16.065403 -1.835379
                CHANNELS 3 Zrotation Yrotation Xrotation
                End Site
                {
                  OFFSET 0.0 1.0 0.0
                }
              }
              JOINT Jaw
              {
                OFFSET 0.002637 0.475592 3.094941
                CHANNELS 3 Zrotation Yrotation Xrotation
                End Site
                {
                  OFFSET 0.0 1.0 0.0
                }
              }
              JOINT LeftEye
              {
                OFFSET 3.206381 5.380205 7.586883
                CHANNELS 3 Zrotation Yrotation Xrotation
                End Site
                {
                  OFFSET 0.0 1.0 0.0
                }
              }
              JOINT RightEye
              {
                OFFSET -3.222440 5.361869 7.558234
                CHANNELS 3 Zrotation Yrotation Xrotation
                End Site
                {
                  OFFSET 0.0 1.0 0.0
                }
              }
            }
          }
        }
        JOINT LeftShoulder
        {
          OFFSET 1.621652 23.237164 5.113413
          CHANNELS 3 Zrotation Yrotation Xrotation
          JOINT LeftArm
          {
            OFFSET 14.919846 0.000002 -5.502326
            CHANNELS 3 Zrotation Yrotation Xrotation
            JOINT LeftForeArm
            {
              OFFSET 28.739307 0.000000 -0.002588
              CHANNELS 3 Zrotation Yrotation Xrotation
              JOINT LeftHand
              {
                OFFSET 27.093981 -0.000001 0.002609
                CHANNELS 3 Zrotation Yrotation Xrotation
                JOINT LeftHandThumb1
                {
                  OFFSET 2.276482 -1.392045 3.191413
                  CHANNELS 3 Zrotation Yrotation Xrotation
                  JOINT LeftHandThumb2
                  {
                    OFFSET 4.012836 -1.828127 1.641654
                    CHANNELS 3 Zrotation Yrotation Xrotation
                    JOINT LeftHandThumb3
                    {
                      OFFSET 2.798515 0.000000 -0.000003
                      CHANNELS 3 Zrotation Yrotation Xrotation
                      JOINT LeftHandThumbEnd
                      {
                        OFFSET 3.180793 -0.000004 0.000004
                        CHANNELS 3 Zrotation Yrotation Xrotation
                        End Site
                        {
                          OFFSET 0.0 1.0 0.0
                        }
                      }
                    }
                  }
                }
                JOINT LeftHandIndex1
                {
                  OFFSET 3.247555 -0.531998 2.296169
                  CHANNELS 3 Zrotation Yrotation Xrotation
                  JOINT LeftHandIndex2
                  {
                    OFFSET 6.364578 0.012060 0.178600
                    CHANNELS 3 Zrotation Yrotation Xrotation
                    JOINT LeftHandIndex3
                    {
                      OFFSET 3.662364 0.000000 0.000000
                      CHANNELS 3 Zrotation Yrotation Xrotation
                      JOINT LeftHandIndex4
                      {
                        OFFSET 2.329242 0.000004 0.000004
                        CHANNELS 3 Zrotation Yrotation Xrotation
                        JOINT LeftHandIndexEnd
                        {
                          OFFSET 2.759615 -0.180537 -0.113024
                          CHANNELS 3 Zrotation Yrotation Xrotation
                          End Site
                          {
                            OFFSET 0.0 1.0 0.0
                          }
                        }
                      }
                    }
                  }
                }
                JOINT LeftHandMiddle1
                {
                  OFFSET 3.163495 0.240981 1.000332
                  CHANNELS 3 Zrotation Yrotation Xrotation
                  JOINT LeftHandMiddle2
                  {
                    OFFSET 6.190780 -0.259278 -1.002548
                    CHANNELS 3 Zrotation Yrotation Xrotation
                    JOINT LeftHandMiddle3
                    {
                      OFFSET 4.356520 -0.000004 -0.000001
                      CHANNELS 3 Zrotation Yrotation Xrotation
                      JOINT LeftHandMiddle4
                      {
                        OFFSET 2.996877 -0.000008 0.000000
                        CHANNELS 3 Zrotation Yrotation Xrotation
                        JOINT LeftHandMiddleEnd
                        {
                          OFFSET 2.304287 -0.294569 -0.031741
                          CHANNELS 3 Zrotation Yrotation Xrotation
                          End Site
                          {
                            OFFSET 0.0 1.0 0.0
                          }
                        }
                      }
                    }
                  }
                }
                JOINT LeftHandRing1
                {
                  OFFSET 2.882643 -0.053652 -0.322543
                  CHANNELS 3 Zrotation Yrotation Xrotation
                  JOINT LeftHandRing2
                  {
                    OFFSET 5.854541 -0.486202 -1.373841
                    CHANNELS 3 Zrotation Yrotation Xrotation
                    JOINT LeftHandRing3
                    {
                      OFFSET 4.350578 0.000000 0.000003
                      CHANNELS 3 Zrotation Yrotation Xrotation
                      JOINT LeftHandRing4
                      {
                        OFFSET 2.651321 0.000007 0.000002
                        CHANNELS 3 Zrotation Yrotation Xrotation
                        JOINT LeftHandRingEnd
                        {
                          OFFSET 1.936105 0.077687 -0.000071
                          CHANNELS 3 Zrotation Yrotation Xrotation
                          End Site
                          {
                            OFFSET 0.0 1.0 0.0
                          }
                        }
                      }
                    }
                  }
                }
                JOINT LeftHandPinky1
                {
                  OFFSET 2.865500 -0.310005 -1.600378
                  CHANNELS 3 Zrotation Yrotation Xrotation
                  JOINT LeftHandPinky2
                  {
                    OFFSET 5.087849 -1.331141 -1.771230
                    CHANNELS 3 Zrotation Yrotation Xrotation
                    JOINT LeftHandPinky3
                    {
                      OFFSET 3.070974 0.000004 0.000000
                      CHANNELS 3 Zrotation Yrotation Xrotation
                      JOINT LeftHandPinky4
                      {
                        OFFSET 1.549672 0.000000 0.000001
                        CHANNELS 3 Zrotation Yrotation Xrotation
                        JOINT LeftHandPinkyEnd
                        {
                          OFFSET 1.944893 -0.157802 0.057219
                          CHANNELS 3 Zrotation Yrotation Xrotation
                          End Site
                          {
                            OFFSET 0.0 1.0 0.0
                          }
                        }
                      }
                    }
                  }
                }
              }
            }
          }
        }
        JOINT RightShoulder
        {
          OFFSET -1.380118 23.180309 5.214158
          CHANNELS 3 Zrotation Yrotation Xrotation
          JOINT RightArm
          {
            OFFSET -15.037196 0.000012 -5.545604
            CHANNELS 3 Zrotation Yrotation Xrotation
            JOINT RightForeArm
            {
              OFFSET -28.736639 0.000002 -0.002597
              CHANNELS 3 Zrotation Yrotation Xrotation
              JOINT RightHand
              {
                OFFSET -27.133619 -0.000000 0.002613
                CHANNELS 3 Zrotation Yrotation Xrotation
                JOINT RightHandThumb1
                {
                  OFFSET -2.274032 -1.383988 3.163127
                  CHANNELS 3 Zrotation Yrotation Xrotation
                  JOINT RightHandThumb2
                  {
                    OFFSET -4.011429 -1.827466 1.640914
                    CHANNELS 3 Zrotation Yrotation Xrotation
                    JOINT RightHandThumb3
                    {
                      OFFSET -2.794935 -0.000004 -0.000003
                      CHANNELS 3 Zrotation Yrotation Xrotation
                      JOINT RightHandThumbEnd
                      {
                        OFFSET -3.183852 0.000004 0.000001
                        CHANNELS 3 Zrotation Yrotation Xrotation
                        End Site
                        {
                          OFFSET 0.0 1.0 0.0
                        }
                      }
                    }
                  }
                }
                JOINT RightHandIndex1
                {
                  OFFSET -3.253266 -0.520057 2.282866
                  CHANNELS 3 Zrotation Yrotation Xrotation
                  JOINT RightHandIndex2
                  {
                    OFFSET -6.341917 0.012471 0.178266
                    CHANNELS 3 Zrotation Yrotation Xrotation
                    JOINT RightHandIndex3
                    {
                      OFFSET -3.654871 -0.000008 -0.000000
                      CHANNELS 3 Zrotation Yrotation Xrotation
                      JOINT RightHandIndex4
                      {
                        OFFSET -2.327586 0.000000 0.000001
                        CHANNELS 3 Zrotation Yrotation Xrotation
                        JOINT RightHandIndexEnd
                        {
                          OFFSET -2.761790 -0.180656 -0.113078
                          CHANNELS 3 Zrotation Yrotation Xrotation
                          End Site
                          {
                            OFFSET 0.0 1.0 0.0
                          }
                        }
                      }
                    }
                  }
                }
                JOINT RightHandMiddle1
                {
                  OFFSET -3.168106 0.246593 1.001030
                  CHANNELS 3 Zrotation Yrotation Xrotation
                  JOINT RightHandMiddle2
                  {
                    OFFSET -6.180828 -0.258836 -1.000895
                    CHANNELS 3 Zrotation Yrotation Xrotation
                    JOINT RightHandMiddle3
                    {
                      OFFSET -4.348901 0.000000 -0.000000
                      CHANNELS 3 Zrotation Yrotation Xrotation
                      JOINT RightHandMiddle4
                      {
                        OFFSET -3.000240 -0.000004 -0.000002
                        CHANNELS 3 Zrotation Yrotation Xrotation
                        JOINT RightHandMiddleEnd
                        {
                          OFFSET -2.302520 -0.294370 -0.031706
                          CHANNELS 3 Zrotation Yrotation Xrotation
                          End Site
                          {
                            OFFSET 0.0 1.0 0.0
                          }
                        }
                      }
                    }
                  }
                }
                JOINT RightHandRing1
                {
                  OFFSET -2.885690 -0.067952 -0.308858
                  CHANNELS 3 Zrotation Yrotation Xrotation
                  JOINT RightHandRing2
                  {
                    OFFSET -5.854198 -0.486130 -1.373731
                    CHANNELS 3 Zrotation Yrotation Xrotation
                    JOINT RightHandRing3
                    {
                      OFFSET -4.338810 -0.000004 -0.000000
                      CHANNELS 3 Zrotation Yrotation Xrotation
                      JOINT RightHandRing4
                      {
                        OFFSET -2.654903 -0.000004 0.000004
                        CHANNELS 3 Zrotation Yrotation Xrotation
                        JOINT RightHandRingEnd
                        {
                          OFFSET -1.933568 0.077527 -0.000052
                          CHANNELS 3 Zrotation Yrotation Xrotation
                          End Site
                          {
                            OFFSET 0.0 1.0 0.0
                          }
                        }
                      }
                    }
                  }
                }
                JOINT RightHandPinky1
                {
                  OFFSET -2.866425 -0.342796 -1.584145
                  CHANNELS 3 Zrotation Yrotation Xrotation
                  JOINT RightHandPinky2
                  {
                    OFFSET -5.091371 -1.332055 -1.772385
                    CHANNELS 3 Zrotation Yrotation Xrotation
                    JOINT RightHandPinky3
                    {
                      OFFSET -3.062664 -0.000004 0.000001
                      CHANNELS 3 Zrotation Yrotation Xrotation
                      JOINT RightHandPinky4
                      {
                        OFFSET -1.546529 0.000004 -0.000002
                        CHANNELS 3 Zrotation Yrotation Xrotation
                        JOINT RightHandPinkyEnd
                        {
                          OFFSET -1.945119 -0.157718 0.057211
                          CHANNELS 3 Zrotation Yrotation Xrotation
                          End Site
                          {
                            OFFSET 0.0 1.0 0.0
                          }
                        }
                      }
                    }
                  }
                }
              }
            }
          }
        }
      }
    }
  }
  JOINT LeftLeg
  {
    OFFSET 10.043214 -8.434526 2.595655
    CHANNELS 3 Zrotation Yrotation Xrotation
    JOINT LeftShin
    {
      OFFSET -0.000001 -43.221752 -0.802913
      CHANNELS 3 Zrotation Yrotation Xrotation
      JOINT LeftFoot
      {
        OFFSET 0.000001 -42.155094 -3.481523
        CHANNELS 3 Zrotation Yrotation Xrotation
        JOINT LeftToeBase
        {
          OFFSET 0.000000 -5.059472 13.231529
          CHANNELS 3 Zrotation Yrotation Xrotation
          JOINT LeftToeEnd
          {
            OFFSET -0.009607 -1.647619 6.513017
            CHANNELS 3 Zrotation Yrotation Xrotation
            End Site
            {
              OFFSET 0.0 1.0 0.0
            }
          }
        }
      }
    }
  }
  JOINT RightLeg
  {
    OFFSET -10.047278 -8.295260 2.620317
    CHANNELS 3 Zrotation Yrotation Xrotation
    JOINT RightShin
    {
      OFFSET 0.000001 -43.362206 -0.805556
      CHANNELS 3 Zrotation Yrotation Xrotation
      JOINT RightFoot
      {
        OFFSET 0.000002 -42.117393 -3.478398
        CHANNELS 3 Zrotation Yrotation Xrotation
        JOINT RightToeBase
        {
          OFFSET -0.000000 -5.079609 13.284196
          CHANNELS 3 Zrotation Yrotation Xrotation
          JOINT RightToeEnd
          {
            OFFSET 0.009532 -1.634378 6.460591
            CHANNELS 3 Zrotation Yrotation Xrotation
            End Site
            {
              OFFSET 0.0 1.0 0.0
            }
          }
        }
      }
    }
  }
}
MOTION
Frames: 4
Frame Time: 0.033333
0.827318 109.148445 -5.728287 2.295718 42.858477 0.514025 -2.409161 1.388751 8.956575 1.608511 5.876657 -5.080765 -5.556523 5.131785 11.545701 -0.986452 0.384233 2.538522 -8.479244 6.720358 11.430844 7.631259 23.385598 -3.931935 -0.000246 -0.000667 -0.000624 -1.253649 -0.270958 -0.848244 -0.015081 -1.985032 -0.681762 -0.431070 -0.252327 -0.692760 -5.702554 -12.647434 18.986484 -71.413088 -30.751141 34.634996 -56.086229 -85.250440 59.256256 15.277173 -4.027058 -8.974238 -13.444865 12.291969 18.780027 -3.670162 -7.155494 -8.000544 0.533629 3.596133 -2.269752 -0.000889 -0.000100 -0.000112 2.650534 -0.990024 -0.925304 -56.661654 7.604546 5.896665 -30.748675 -9.172188 5.729732 -6.360982 -1.800559 -3.331689 -0.000090 -0.000424 0.000083 2.549674 -2.406610 2.224825 -55.798509 8.867870 0.876245 -33.367490 -8.081494 5.745472 -4.028550 -1.454604 -4.655968 0.000052 -0.000895 0.000347 5.676086 -1.426130 -13.708691 -49.905350 20.144625 12.275118 -36.194110 -2.044558 1.050683 -29.151825 -2.260400 -8.292099 0.000792 -0.000080 0.000216 4.036765 0.538777 -8.884403 -47.000937 14.463421 9.686099 -35.608297 -3.298244 2.173748 -21.340850 -0.589154 -8.101712 0.000473 -0.000544 0.000259 -7.814221 15.855171 23.580074 69.967981 24.974002 30.257482 48.887520 75.072895 46.838666 -27.023477 16.483794 7.957460 19.462546 -28.711314 25.831688 -0.750099 4.793056 -13.389716 -2.125557 -2.105030 3.498521 -0.000060 0.001324 -0.000263 0.112598 -2.497084 3.420753 49.916018 -9.221573 7.203678 31.352193 9.209892 4.215991 5.339764 3.075036 -5.331802 -0.000400 0.000729 -0.000040 -2.313608 -0.657051 6.345197 53.611111 -7.847040 5.016180 38.444483 10.514566 6.395403 6.302378 3.723175 -8.025368 -0.000108 0.000834 -0.000500 -7.516550 -1.817040 -9.088168 52.668010 -14.870212 15.514931 46.110196 7.954998 4.325567 33.485270 7.378261 -15.504593 -0.000012 0.000153 -0.000780 -9.010346 -3.285592 -3.269282 53.212008 -10.013396 13.432061 45.657145 14.449741 9.357098 27.817283 8.222826 -20.450981 -0.004316 0.002707 0.000105 0.865046 -1.446361 -26.536413 0.386011 -3.273735 16.933017 -8.912728 -5.589902 16.620935 -1.452072 -0.641868 0.351382 0.000997 0.000144 0.999645 -3.893661 -15.747180 6.112000 -2.045644 -3.117979 27.376330 6.184335 -11.994694 -13.181208 0.050840 2.638202 -5.867584 -0.001626 0.000352 1.000697
0.730714 109.152512 -5.725870 2.431176 42.612146 0.662507 -2.412272 1.393467 9.016776 1.617550 5.905034 -5.105795 -5.560505 5.135815 11.546345 -1.007473 0.391517 2.577982 -8.567484 6.732236 11.363934 7.650403 23.572280 -3.965347 -0.000234 -0.000656 -0.000635 -1.270722 -0.271158 -0.886957 -0.018074 -1.993446 -0.680052 -0.433997 -0.260677 -0.691724 -5.748898 -12.536744 19.014476 -71.200084 -30.703023 34.524199 -57.427652 -85.431326 60.613876 15.036571 -3.952675 -8.763604 -13.528813 12.479678 18.867169 -3.777440 -7.123957 -8.055729 0.525065 3.637915 -2.150028 -0.000883 -0.000089 -0.000094 2.580663 -0.961979 -0.917314 -56.762635 7.616756 5.836309 -30.809672 -9.216322 5.771855 -6.372948 -1.786915 -3.339388 -0.000087 -0.000417 0.000065 2.490893 -2.404762 2.223892 -55.908675 8.882113 0.836898 -33.444708 -8.100643 5.800518 -4.004219 -1.438753 -4.701338 0.000055 -0.000884 0.000353 5.638024 -1.450434 -13.682890 -50.039337 20.225541 12.266905 -36.196603 -2.059353 1.076286 -29.165707 -2.288154 -8.325562 0.000793 -0.000064 0.000209 4.010037 0.510809 -8.885653 -47.135184 14.522912 9.696645 -35.591746 -3.272037 2.176597 -21.354306 -0.595345 -8.102588 0.000458 -0.000534 0.000260 -7.664881 15.948103 23.585103 69.949178 25.068111 30.339931 49.009486 75.194238 46.954068 -26.490525 16.251708 8.168907 19.367090 -28.695537 25.842709 -0.697206 4.865829 -13.427592 -2.082483 -2.042299 3.512910 -0.000062 0.001340 -0.000258 0.027626 -2.372419 3.411442 49.753318 -9.095640 7.180424 31.109693 9.246720 4.145814 5.231234 3.060564 -5.217453 -0.000369 0.000718 -0.000035 -2.350371 -0.532138 6.302308 53.375528 -7.802394 4.971005 38.173812 10.526952 6.334441 6.146296 3.683881 -8.042571 -0.000077 0.000818 -0.000489 -7.527561 -1.711556 -9.151844 52.365896 -14.794607 15.579813 45.838558 7.962023 4.302709 33.395448 7.392384 -15.552801 0.000012 0.000106 -0.000786 -9.014866 -3.151492 -3.374014 52.957188 -10.051262 13.468416 45.353480 14.423578 9.316713 27.693547 8.193428 -20.526378 -0.004276 0.002652 0.000094 0.902964 -1.440039 -26.600673 0.339955 -3.276345 17.004307 -9.029083 -5.641317 16.538612 -1.411171 -0.641030 0.296805 0.000988 0.000132 0.999640 -3.923926 -15.691959 6.129199 -2.124638 -3.057519 27.157039 6.154852 -11.931933 -13.239871 -0.012141 2.618033 -5.931251 -0.001613 0.000358 1.000732
0.634103 109.158943 -5.723454 2.504443 42.481744 0.748770 -2.427955 1.405113 9.051683 1.627925 5.911468 -5.151600 -5.552567 5.130138 11.544714 -1.003746 0.416386 2.646754 -8.602244 6.694862 11.323886 7.636276 23.640216 -3.976705 -0.000230 -0.000650 -0.000640 -1.268992 -0.270988 -0.927129 -0.020007 -1.996523 -0.632472 -0.434483 -0.263442 -0.644483 -5.792324 -12.450610 19.053094 -71.079093 -30.632283 34.398142 -58.167740 -85.561043 61.396219 14.792608 -3.995747 -8.603157 -13.596892 12.579107 18.904240 -3.881555 -7.068168 -8.061735 0.526831 3.703910 -2.061744 -0.000879 -0.000078 -0.000081 2.489442 -0.949589 -0.914173 -56.712060 7.658910 5.820457 -30.664932 -9.113380 5.695081 -6.292346 -1.781063 -3.206067 -0.000080 -0.000421 0.000056 2.427362 -2.408107 2.233166 -55.848835 8.908770 0.839100 -33.294161 -7.998161 5.748577 -3.882221 -1.415103 -4.618815 0.000055 -0.000876 0.000358 5.594486 -1.467447 -13.652556 -49.974564 20.246645 12.315297 -36.000504 -2.017811 1.074149 -29.022186 -2.269327 -8.309082 0.000795 -0.000049 0.000206 3.993511 0.495805 -8.864882 -47.068667 14.546312 9.747611 -35.397732 -3.233598 2.166212 -21.195293 -0.550722 -8.109103 0.000452 -0.000528 0.000268 -7.523173 15.974495 23.569353 69.937341 25.057376 30.391523 49.075517 75.331844 47.023428 -25.953458 16.189449 8.285250 19.346952 -28.601169 25.812693 -0.660390 4.908720 -13.417875 -2.063771 -2.058598 3.511531 -0.000053 0.001349 -0.000259 0.020909 -2.260961 3.379997 49.551379 -9.007562 7.173767 30.727587 9.149769 4.034835 5.062894 3.047947 -5.026089 -0.000352 0.000712 -0.000040 -2.343027 -0.432641 6.252697 53.107661 -7.760907 4.952677 37.749735 10.402829 6.188034 5.924701 3.612807 -7.908676 -0.000072 0.000809 -0.000484 -7.521403 -1.616878 -9.216082 52.063083 -14.724826 15.630697 45.399790 7.839644 4.189547 33.179955 7.280396 -15.483305 0.000019 0.000073 -0.000784 -9.017660 -3.042833 -3.466203 52.671964 -10.061993 13.498283 44.937269 14.251214 9.108492 27.463952 8.001288 -20.433649 -0.004255 0.002615 0.000095 0.929374 -1.410143 -26.637630 0.322580 -3.276697 17.037263 -9.095687 -5.688329 16.344916 -1.358283 -0.656236 0.260573 0.000983 0.000128 0.999632 -3.929038 -15.653730 6.123322 -2.141682 -3.022301 27.050728 6.137510 -11.870013 -13.297822 -0.043503 2.600553 -5.929239 -0.001602 0.000360 1.000751
0.537479 109.173164 -5.721036 2.545987 42.390657 0.788516 -2.434076 1.410251 9.081670 1.624020 5.918740 -5.206297 -5.553195 5.126490 11.546091 -1.024104 0.439820 2.700012 -8.629802 6.643813 11.233629 7.573404 23.707616 -4.100070 -0.000230 -0.000644 -0.000647 -1.265116 -0.271016 -0.975390 -0.018330 -1.988785 -0.592051 -0.431592 -0.255266 -0.604749 -5.782740 -12.386782 19.060495 -70.987675 -30.576041 34.284686 -58.512291 -85.608583 61.747812 14.699788 -4.120552 -8.608319 -13.609767 12.634997 18.901345 -3.950737 -7.026341 -8.058009 0.519423 3.749283 -2.010869 -0.000873 -0.000076 -0.000073 2.452196 -0.901125 -0.920307 -56.620231 7.671668 5.823842 -30.507411 -9.018283 5.611999 -6.187597 -1.783850 -3.082398 -0.000075 -0.000424 0.000053 2.397236 -2.380369 2.239574 -55.767531 8.916214 0.846237 -33.110361 -7.912578 5.691243 -3.730436 -1.391192 -4.532109 0.000050 -0.000868 0.000358 5.567258 -1.452160 -13.636266 -49.914593 20.251238 12.358987 -35.759466 -1.994718 1.070423 -28.824344 -2.240537 -8.281709 0.000794 -0.000039 0.000209 3.979226 0.506599 -8.872751 -47.000724 14.554332 9.785191 -35.160038 -3.206669 2.147450 -20.974405 -0.493830 -8.098428 0.000452 -0.000527 0.000274 -7.459377 15.970460 23.545401 69.971717 25.049014 30.465467 48.976152 75.435278 46.889067 -25.471391 16.129051 8.399059 19.329355 -28.476782 25.777526 -0.623918 4.954159 -13.387404 -2.042756 -2.063295 3.495227 -0.000050 0.001362 -0.000257 0.022783 -2.172323 3.365075 49.327610 -8.932367 7.171754 30.277076 9.022715 3.918505 4.854853 3.027094 -4.843493 -0.000340 0.000710 -0.000042 -2.336003 -0.360991 6.215920 52.809282 -7.717165 4.942915 37.251630 10.244733 6.023044 5.669546 3.526814 -7.730787 -0.000069 0.000800 -0.000477 -7.515846 -1.555787 -9.265061 51.728160 -14.649369 15.695021 44.873409 7.688008 4.064500 32.905565 7.126452 -15.377578 0.000031 0.000023 -0.000787 -9.031776 -2.963377 -3.524702 52.354248 -10.062541 13.532264 44.440100 14.053030 8.863929 27.173740 7.756752 -20.281554 -0.004222 0.002561 0.000097 0.957976 -1.366882 -26.635968 0.307416 -3.275120 17.032573 -9.121261 -5.742017 16.162849 -1.323105 -0.657071 0.247255 0.000984 0.000131 0.999624 -3.936869 -15.660811 6.148720 -2.143278 -2.999581 26.941797 6.142473 -11.873804 -13.320023 -0.068410 2.575484 -5.924905 -0.001598 0.000358 1.000787
